<?xml version="1.0" standalone="no"?>
<!DOCTYPE svg PUBLIC "-//W3C//DTD SVG 20010904//EN"
 "http://www.w3.org/TR/2001/REC-SVG-20010904/DTD/svg10.dtd">
<svg version="1.0" xmlns="http://www.w3.org/2000/svg"
 width="76.000000pt" height="76.000000pt" viewBox="0 0 76.000000 76.000000"
 preserveAspectRatio="xMidYMid meet">
<metadata>
Created by potrace 1.14, written by Peter Selinger 2001-2017
</metadata>
<g transform="translate(0.000000,76.000000) scale(0.100000,-0.100000)"
fill="#000000" stroke="none">
<path d="M373 690 c-13 -5 -23 -6 -23 -2 0 4 -5 -1 -11 -10 -5 -10 -16 -18
-24 -18 -45 0 -67 -138 -27 -170 11 -8 23 -25 26 -37 7 -23 57 -46 80 -37 8 3
17 1 21 -5 3 -6 -1 -11 -11 -11 -13 0 -14 -3 -4 -15 7 -8 16 -15 21 -15 13 0
53 -44 67 -73 19 -43 15 -62 -24 -99 -40 -40 -29 -57 22 -32 45 22 93 141 64
159 -6 4 -8 15 -5 25 4 13 -1 22 -15 30 -11 6 -20 20 -20 31 0 11 -10 23 -24
29 -13 5 -36 25 -51 44 -15 20 -36 36 -46 36 -20 0 -66 45 -75 74 -4 13 3 28
24 47 25 24 40 29 81 29 43 0 53 -4 75 -31 14 -17 26 -37 26 -45 0 -8 5 -14
11 -14 8 0 10 15 6 46 -6 54 -19 73 -40 56 -10 -9 -18 -8 -33 3 -21 16 -58 18
-91 5z"/>
<path d="M256 225 c7 -62 15 -75 49 -75 12 0 26 -5 33 -12 9 -9 17 -9 34 -1
13 7 30 14 38 16 8 3 3 6 -12 6 -15 1 -30 6 -33 11 -4 6 -10 8 -15 5 -11 -7
-60 34 -60 51 0 8 -5 14 -10 14 -6 0 -15 10 -20 23 -7 15 -8 4 -4 -38z"/>
</g>
</svg>
